# xmcd
#
# Track frame offsets: 
#        150
#        18154
#        32648
#        43379
#        51155
#        65279
#        80841
#        100577
#        109069
#        123307
#        133402
#        144766
#        159534
#        172694
#        182300
#        204792
#
# Disc length: 3009 seconds
#
# Revision: 1
# Processed by: cddbd v1.5.1PL0 Copyright (c) Steve Scherf et al.
# Submitted via: ExactAudioCopy v0.90b4
#
DISCID=ca0bbf10
DTITLE=Marty Robbins - Gunfighter Ballads And Trail Songs
DYEAR=2004
DGENRE=Compilation
TTITLE0=Big Iron
TTITLE1=Cool Water
TTITLE2=Billy The Kid
TTITLE3=A Hundred And Sixty Acres
TTITLE4=They're Hanging Me Tonight
TTITLE5=The Strawberry Roan
TTITLE6=El Paso
TTITLE7=In The Valley
TTITLE8=The Master's Call
TTITLE9=Running Gun
TTITLE10=Little Green Valley
TTITLE11=Utah Carol
TTITLE12=The Hanging Tree (Bonus)
TTITLE13=Saddle Tramp (Bonus)
TTITLE14=Mister Shorty  (Bonus)
TTITLE15=El Paso (Bonus Full Length)
EXTD=
EXTT0=
EXTT1=
EXTT2=
EXTT3=
EXTT4=
EXTT5=
EXTT6=
EXTT7=
EXTT8=
EXTT9=
EXTT10=
EXTT11=
EXTT12=
EXTT13=
EXTT14=
EXTT15=
PLAYORDER=
